<svg xmlns="http://www.w3.org/2000/svg" viewBox="0 0 1200 630">
  <!-- Background -->
  <rect width="1200" height="630" fill="#1E6FFF"/>

  <!-- Door Icon -->
  <g transform="translate(450, 150) scale(3)" fill="white">
    <path d="M3 21v-13a2 2 0 0 1 2-2h6v16h-6a2 2 0 0 1-2-2z"/>
    <path d="M11 6h6a2 2 0 0 1 2 2v13a2 2 0 0 1-2 2h-6v-17z" fill-opacity="0.7"/>
    <circle cx="9" cy="14" r="1.5"/>
    <path d="M1 22c0 0 4-2 10-2s10 2 10 2" stroke="white" stroke-width="2" fill="none" stroke-linecap="round"/>
  </g>

  <!-- Text -->
  <text x="600" y="480" text-anchor="middle" font-family="Arial, sans-serif" font-size="72" font-weight="bold" fill="white">오프닝</text>
  <text x="600" y="540" text-anchor="middle" font-family="Arial, sans-serif" font-size="32" fill="rgba(255,255,255,0.8)">성공적인 창업의 시작과 끝</text>
</svg>
